<svg width="198" height="47" viewBox="0 0 198 47" fill="none" xmlns="http://www.w3.org/2000/svg">
<path d="M15.576 3.824C16.6427 3.824 17.5387 4.29333 18.264 5.232C18.9893 6.17067 19.928 8.112 21.08 11.056C23.768 18.0107 26.392 28.912 28.952 43.76C28.9947 43.9307 29.016 44.1867 29.016 44.528C29.016 44.8267 28.8027 45.168 28.376 45.552C27.992 45.8933 27.416 46.064 26.648 46.064C25.9227 46.064 25.304 45.8933 24.792 45.552C24.28 45.168 23.9387 44.5707 23.768 43.76C23.5973 42.9067 23.2773 41.264 22.808 38.832C21.784 33.4133 21.1013 30.5973 20.76 30.384C20.248 30.0853 18.5413 29.7653 15.64 29.424C12.7813 29.0827 10.8827 28.912 9.944 28.912C9.00533 28.912 8.45067 28.9973 8.28 29.168C7.512 29.8507 6.46667 35.0347 5.144 44.72C4.97333 45.5307 4.16267 45.936 2.712 45.936C1.26133 45.936 0.536 45.3173 0.536 44.08C0.536 41.008 1.66667 35.1413 3.928 26.48C6.18933 17.8187 8.06667 12.08 9.56 9.264C11.4373 5.63733 13.4427 3.824 15.576 3.824ZM15.32 10.928C14.68 10.928 13.5707 12.8267 11.992 16.624C10.4133 20.3787 9.624 22.704 9.624 23.6C9.624 23.8133 9.66667 23.9627 9.752 24.048C10.0933 24.3893 11.4373 24.688 13.784 24.944C16.1307 25.2 17.688 25.328 18.456 25.328C19.224 25.328 19.6507 25.2853 19.736 25.2C19.8213 25.072 19.864 24.7307 19.864 24.176C19.864 23.5787 19.288 21.232 18.136 17.136C16.984 12.9973 16.0453 10.928 15.32 10.928ZM33.77 24.24C33.77 21.7227 34.666 19.7173 36.458 18.224C38.25 16.7307 40.3193 15.984 42.666 15.984C45.0553 15.984 47.338 16.4107 49.514 17.264C51.69 18.1173 52.778 19.248 52.778 20.656C52.778 21.3813 52.5007 21.9573 51.946 22.384C51.3913 22.8107 50.9007 23.024 50.474 23.024C50.09 23.024 49.77 23.024 49.514 23.024C49.3007 22.9813 48.4473 22.576 46.954 21.808C45.5033 21.04 44.1593 20.656 42.922 20.656C41.6847 20.656 40.618 20.976 39.722 21.616C38.8687 22.2133 38.442 23.1093 38.442 24.304C38.442 25.4987 38.9327 26.4373 39.914 27.12C40.938 27.8027 42.7087 28.4 45.226 28.912C47.7433 29.3813 49.6633 30.064 50.986 30.96C52.3513 31.856 53.034 33.52 53.034 35.952C53.034 39.4933 52.0953 42.0107 50.218 43.504C48.3833 44.9547 46.1433 45.68 43.498 45.68C40.8527 45.68 38.5913 45.3173 36.714 44.592C34.8793 43.8667 33.962 42.7787 33.962 41.328C33.962 39.664 34.794 38.832 36.458 38.832C36.8847 38.832 37.8233 39.1307 39.274 39.728C40.7247 40.3253 42.154 40.624 43.562 40.624C45.0127 40.624 46.1007 40.176 46.826 39.28C47.594 38.3413 47.978 37.2747 47.978 36.08C47.978 34.8853 47.4873 34.032 46.506 33.52C45.5247 32.9653 44.0313 32.5173 42.026 32.176C40.0207 31.8347 38.5487 31.472 37.61 31.088C35.05 30.064 33.77 27.7813 33.77 24.24ZM57.115 4.592C57.243 2.97066 57.499 1.92533 57.883 1.456C58.3097 0.943999 58.971 0.688 59.867 0.688C61.7017 0.688 62.619 1.43467 62.619 2.928C62.619 4.08 62.5123 7.088 62.299 11.952C62.1283 16.816 62.043 21.168 62.043 25.008C62.043 28.848 62.1923 31.9413 62.491 34.288C63.003 38.384 63.7283 40.432 64.667 40.432C65.6057 40.432 66.3097 39.7707 66.779 38.448C66.9923 37.936 67.3337 37.488 67.803 37.104C68.2723 36.6773 68.8697 36.464 69.595 36.464C71.0883 36.464 71.835 37.7227 71.835 40.24C71.835 41.6053 71.0883 42.9707 69.595 44.336C68.1443 45.6587 66.6937 46.32 65.243 46.32C63.7923 46.32 62.619 46.0853 61.723 45.616C60.8697 45.104 60.1657 44.3573 59.611 43.376C59.099 42.3947 58.6723 41.456 58.331 40.56C58.0323 39.6213 57.819 38.4907 57.691 37.168C57.435 35.0347 57.243 31.6213 57.115 26.928C57.0297 22.192 56.987 17.6907 56.987 13.424C56.987 9.11467 57.0297 6.17067 57.115 4.592ZM78.531 5.552C79.299 5.552 80.0243 5.91467 80.707 6.64C81.3897 7.36533 81.731 8.13333 81.731 8.944C81.731 9.712 81.347 10.5013 80.579 11.312C79.8537 12.1227 79.0857 12.528 78.275 12.528C77.4643 12.528 76.7177 12.1867 76.035 11.504C75.395 10.8213 75.075 9.94667 75.075 8.88C75.075 6.832 76.1843 5.72267 78.403 5.552C78.4457 5.552 78.4883 5.552 78.531 5.552ZM81.219 39.088L81.283 43.568C81.283 44.3787 80.963 45.0613 80.323 45.616C79.683 46.128 79.0003 46.384 78.275 46.384C77.2083 46.384 76.6537 45.8507 76.611 44.784C76.0563 31.1733 75.779 23.6427 75.779 22.192C75.779 20.7413 75.843 18.9707 75.971 16.88C76.0563 16.112 76.547 15.728 77.443 15.728C79.7043 15.728 80.9843 16.6453 81.283 18.48C81.411 19.4187 81.475 20.1653 81.475 20.72L81.219 24.752V39.088ZM88.4275 4.592C88.5555 2.97066 88.8115 1.92533 89.1955 1.456C89.6222 0.943999 90.2835 0.688 91.1795 0.688C93.0142 0.688 93.9315 1.43467 93.9315 2.928C93.9315 4.08 93.8248 7.088 93.6115 11.952C93.4408 16.816 93.3555 21.168 93.3555 25.008C93.3555 28.848 93.5048 31.9413 93.8035 34.288C94.3155 38.384 95.0408 40.432 95.9795 40.432C96.9182 40.432 97.6222 39.7707 98.0915 38.448C98.3048 37.936 98.6462 37.488 99.1155 37.104C99.5848 36.6773 100.182 36.464 100.908 36.464C102.401 36.464 103.148 37.7227 103.148 40.24C103.148 41.6053 102.401 42.9707 100.908 44.336C99.4568 45.6587 98.0062 46.32 96.5555 46.32C95.1048 46.32 93.9315 46.0853 93.0355 45.616C92.1822 45.104 91.4782 44.3573 90.9235 43.376C90.4115 42.3947 89.9848 41.456 89.6435 40.56C89.3448 39.6213 89.1315 38.4907 89.0035 37.168C88.7475 35.0347 88.5555 31.6213 88.4275 26.928C88.3422 22.192 88.2995 17.6907 88.2995 13.424C88.2995 9.11467 88.3422 6.17067 88.4275 4.592ZM116.948 16.176C120.02 16.176 122.537 17.648 124.5 20.592C126.505 23.536 127.508 27.0773 127.508 31.216C127.508 35.312 126.484 38.8107 124.436 41.712C122.43 44.6133 119.742 46.064 116.372 46.064C113.044 46.064 110.356 44.592 108.308 41.648C106.26 38.6613 105.236 35.3547 105.236 31.728C105.236 27.0773 106.174 23.3653 108.052 20.592C110.057 17.648 113.022 16.176 116.948 16.176ZM116.18 21.424C114.388 21.424 112.916 22.3627 111.764 24.24C110.612 26.1173 110.036 28.1013 110.036 30.192C110.036 33.4347 110.676 35.9093 111.956 37.616C113.236 39.3227 114.686 40.176 116.308 40.176C119.209 40.176 121.065 38.9173 121.876 36.4C122.217 35.2053 122.388 33.712 122.388 31.92C122.388 24.9227 120.318 21.424 116.18 21.424ZM154.28 43.12C154.28 45.1253 153.363 46.128 151.528 46.128C150.76 46.128 149.715 44.2507 148.392 40.496C147.069 36.6987 145.299 33.776 143.08 31.728C142.867 32.0267 141.949 32.88 140.328 34.288C138.749 35.6533 137.811 36.4853 137.512 36.784V43.184C137.427 43.824 137.32 44.3147 137.192 44.656C137.064 44.9973 136.765 45.3173 136.296 45.616C135.869 45.9147 135.272 46.064 134.504 46.064C133.352 46.064 132.776 45.36 132.776 43.952C132.776 39.984 132.605 33.84 132.264 25.52C131.923 17.1573 131.752 9.66933 131.752 3.056C131.752 2.24533 132.072 1.60533 132.712 1.136C133.395 0.666665 134.099 0.431999 134.824 0.431999C135.805 0.431999 136.403 1.05067 136.616 2.288V13.616C136.616 14.9813 136.637 16.0053 136.68 16.688C136.723 17.3707 136.765 18.3947 136.808 19.76C136.893 22.576 137.043 25.7547 137.256 29.296C138.493 28.3573 140.072 26.8853 141.992 24.88C143.955 22.832 145.427 21.0827 146.408 19.632C147.944 17.2 149.352 15.984 150.632 15.984C150.973 15.984 151.315 16.0693 151.656 16.24C152.552 16.752 153 17.3493 153 18.032C153 18.7147 152.701 19.6107 152.104 20.72C150.568 23.3653 148.797 25.776 146.792 27.952C148.712 30.0853 150.632 33.136 152.552 37.104C153.704 39.664 154.28 41.6693 154.28 43.12ZM175.851 16.112C177.728 16.112 178.667 17.712 178.667 20.912C178.667 21.2533 178.667 21.616 178.667 22L178.539 26.48C178.496 27.888 178.475 29.2747 178.475 30.64L179.435 45.104C179.435 46.1707 178.347 46.704 176.171 46.704C176.043 46.704 175.723 46.704 175.211 46.704C174.741 46.704 174.4 46.512 174.187 46.128C174.016 45.744 173.995 45.2747 174.123 44.72C174.293 44.1653 174.251 43.5467 173.995 42.864C172.032 44.9547 169.429 46 166.187 46C160.171 46 157.163 41.3493 157.163 32.048C157.163 26.8853 158.123 22.9813 160.043 20.336C162.005 17.6907 164.8 16.368 168.427 16.368C170.133 16.368 171.84 16.6667 173.547 17.264C174.101 16.496 174.869 16.112 175.851 16.112ZM169.195 21.936C166.763 21.936 164.949 22.64 163.755 24.048C162.56 25.456 161.963 28.0373 161.963 31.792C161.963 38.1067 163.669 41.264 167.083 41.264C167.979 41.264 168.96 40.8587 170.027 40.048C171.136 39.2373 171.904 38.32 172.331 37.296C173.141 34.992 173.547 32.4747 173.547 29.744C173.547 27.0133 173.205 25.0293 172.523 23.792C171.883 22.5547 170.773 21.936 169.195 21.936ZM182.865 4.592C182.993 2.97066 183.249 1.92533 183.633 1.456C184.06 0.943999 184.721 0.688 185.617 0.688C187.452 0.688 188.369 1.43467 188.369 2.928C188.369 4.08 188.262 7.088 188.049 11.952C187.878 16.816 187.793 21.168 187.793 25.008C187.793 28.848 187.942 31.9413 188.241 34.288C188.753 38.384 189.478 40.432 190.417 40.432C191.356 40.432 192.06 39.7707 192.529 38.448C192.742 37.936 193.084 37.488 193.553 37.104C194.022 36.6773 194.62 36.464 195.345 36.464C196.838 36.464 197.585 37.7227 197.585 40.24C197.585 41.6053 196.838 42.9707 195.345 44.336C193.894 45.6587 192.444 46.32 190.993 46.32C189.542 46.32 188.369 46.0853 187.473 45.616C186.62 45.104 185.916 44.3573 185.361 43.376C184.849 42.3947 184.422 41.456 184.081 40.56C183.782 39.6213 183.569 38.4907 183.441 37.168C183.185 35.0347 182.993 31.6213 182.865 26.928C182.78 22.192 182.737 17.6907 182.737 13.424C182.737 9.11467 182.78 6.17067 182.865 4.592Z" fill="#FF7676"/>
</svg>
