<svg width="115" height="94" viewBox="0 0 115 94" fill="none" xmlns="http://www.w3.org/2000/svg">
<path d="M114.274 25.8039C114.274 33.6929 107.879 40.0882 99.9901 40.0882C94.2789 40.0882 89.3505 36.7366 87.0648 31.8928C86.5078 30.7122 84.9039 30.7122 84.3468 31.8928C82.0611 36.7366 77.1328 40.0882 71.4215 40.0882C65.7103 40.0882 60.7819 36.7366 58.4962 31.8928C57.9391 30.7122 56.3353 30.7122 55.7782 31.8928C53.4925 36.7366 48.5642 40.0882 42.8529 40.0882C37.1416 40.0882 32.2133 36.7366 29.9276 31.8928C29.3705 30.7122 27.7667 30.7122 27.2096 31.8928C24.9239 36.7366 19.9956 40.0882 14.2843 40.0882C6.39535 40.0882 0 33.6929 0 25.8039L13.6837 1.85741C14.3401 0.708859 15.5614 0 16.8843 0H97.3902C98.713 0 99.9343 0.708859 100.591 1.85741L114.274 25.8039Z" fill="#FF7676"/>
<path d="M97.3902 0H16.8843C15.5614 0 14.3401 0.708858 13.6837 1.8574L0 25.8039H114.274L100.591 1.8574C99.9343 0.708858 98.713 0 97.3902 0Z" fill="#FF7676"/>
<path d="M110.588 94H3.68638C2.66751 94 1.84326 93.1755 1.84326 92.1569C1.84326 91.1382 2.66773 90.3138 3.68638 90.3138H110.588C111.607 90.3138 112.431 91.1382 112.431 92.1569C112.431 93.1755 111.607 94 110.588 94Z" fill="#DBD9DC"/>
<path fill-rule="evenodd" clip-rule="evenodd" d="M7.37213 42.3882C9.50139 43.279 11.8353 43.7747 14.2839 43.7747C19.9249 43.7747 25.207 41.0879 28.5683 36.704C31.9298 41.0875 37.212 43.7747 42.8526 43.7747C48.4935 43.7747 53.7756 41.0879 57.1369 36.704C60.4984 41.0875 65.7807 43.7747 71.4212 43.7747C77.0621 43.7747 82.3442 41.0879 85.7055 36.704C89.067 41.0875 94.3493 43.7747 99.9898 43.7747C102.438 43.7747 104.772 43.279 106.902 42.3882V29.4904H106.902V92.1561H97.6863V49.7646C97.6863 48.7466 96.8612 47.9215 95.8432 47.9215H77.4118C76.3938 47.9215 75.5686 48.7466 75.5686 49.7646V92.1561H7.37201V29.4904H7.37213V42.3882ZM75.5686 92.1561V92.1566H97.6863V92.1561H75.5686ZM106.902 29.4904H7.37213V29.4904H106.902V29.4904ZM64.5099 82.941H18.4316C17.4137 82.941 16.5885 82.1159 16.5885 81.0979V49.7646C16.5885 48.7466 17.4137 47.9215 18.4316 47.9215H64.5101C65.5281 47.9215 66.3532 48.7466 66.3532 49.7646V81.0979C66.353 82.1159 65.5279 82.941 64.5099 82.941ZM61.7452 79.2546H40.549L62.6667 57.1369V78.333C62.6667 78.8419 62.254 79.2546 61.7452 79.2546ZM29.4904 79.2547L57.1372 51.6077H51.0521L23.4051 79.2547H29.4904ZM21.1962 51.6077H44.5516L20.2747 75.8847V52.5292C20.2747 52.0203 20.6874 51.6077 21.1962 51.6077ZM94.0001 54.8466V52.5292C94.0001 52.0201 93.5874 51.6077 93.0786 51.6077H80.1767C79.6678 51.6077 79.2551 52.0201 79.2551 52.5292V69.5918L94.0001 54.8466ZM79.2551 80.1766V77.412L94.0001 62.6668V80.1766C94.0001 80.6855 93.5874 81.0982 93.0786 81.0982H80.1767C79.6678 81.0982 79.2551 80.6855 79.2551 80.1766Z" fill="#FF7676"/>
</svg>
