<?xml version="1.0" encoding="iso-8859-1"?>
<!-- Generator: Adobe Illustrator 19.0.0, SVG Export Plug-In . SVG Version: 6.00 Build 0)  -->
<svg version="1.1" id="Capa_1" xmlns="http://www.w3.org/2000/svg" xmlns:xlink="http://www.w3.org/1999/xlink" x="0px" y="0px"
	 viewBox="0 0 512 512" style="enable-background:new 0 0 512 512;" xml:space="preserve">
<path style="fill:#EDEBED;" d="M437.677,512H74.322c-4.561,0-8.258-3.697-8.258-8.258V8.258C66.064,3.697,69.762,0,74.322,0h273.934
	c4.38,0,8.581,1.74,11.678,4.837l81.163,81.16c3.097,3.097,4.838,7.298,4.838,11.679v406.066
	C445.935,508.303,442.238,512,437.677,512z"/>
<path style="fill:#C9C6CA;" d="M396.387,173.419H115.613c-4.565,0-8.258,3.694-8.258,8.258v148.645c0,4.565,3.694,8.258,8.258,8.258
	h280.774c4.565,0,8.258-3.694,8.258-8.258V181.677C404.645,177.113,400.952,173.419,396.387,173.419z M272.516,272.516v-33.032
	h49.548v33.032H272.516z M322.065,289.032v33.032h-49.548v-33.032H322.065z M123.87,239.484h132.129v33.032H123.87V239.484z
	 M272.516,222.968v-33.032h49.548v33.032H272.516z M338.581,239.484h49.548v33.032h-49.548V239.484z M388.129,222.968h-49.548
	v-33.032h49.548V222.968z M255.999,189.935v33.032H123.87v-33.032H255.999z M123.87,289.032h132.129v33.032H123.87V289.032z
	 M338.581,322.065v-33.032h49.548v33.032H338.581z"/>
<circle style="fill:#FFD164;" cx="255.999" cy="412.9" r="41.29"/>
<path style="fill:#9C969E;" d="M181.676,404.645h-66.065c-4.565,0-8.258-3.694-8.258-8.258s3.694-8.258,8.258-8.258h66.065
	c4.565,0,8.258,3.694,8.258,8.258S186.242,404.645,181.676,404.645z"/>
<path style="fill:#AEA8AF;" d="M181.676,437.677h-49.548c-4.565,0-8.258-3.694-8.258-8.258s3.694-8.258,8.258-8.258h49.548
	c4.565,0,8.258,3.694,8.258,8.258S186.242,437.677,181.676,437.677z"/>
<path style="fill:#C9C6CA;" d="M338.581,437.677h49.548c4.561,0,8.258-3.697,8.258-8.258v-33.032c0-4.561-3.697-8.258-8.258-8.258
	h-49.548c-4.561,0-8.258,3.697-8.258,8.258v33.032C330.323,433.98,334.02,437.677,338.581,437.677z"/>
<path style="fill:#FFC350;" d="M156.902,85.063V59.244c5.071,1.853,8.258,5.214,8.258,8.369c0,4.565,3.694,8.258,8.258,8.258
	s8.258-3.694,8.258-8.258c0-12.464-10.398-22.562-24.774-25.428V41.29c0-4.565-3.694-8.258-8.258-8.258s-8.258,3.694-8.258,8.258
	v0.894c-14.376,2.866-24.774,12.965-24.774,25.428c0,17.426,13.696,24.766,24.774,29.002v25.819
	c-5.071-1.853-8.258-5.214-8.258-8.369c0-4.565-3.694-8.258-8.258-8.258c-4.565,0-8.258,3.694-8.258,8.258
	c0,12.464,10.398,22.563,24.774,25.428v0.894c0,4.565,3.694,8.258,8.258,8.258s8.258-3.694,8.258-8.258v-0.894
	c14.376-2.866,24.774-12.965,24.774-25.428C181.676,96.638,167.98,89.298,156.902,85.063z M132.128,67.613
	c0-3.155,3.187-6.516,8.258-8.369v19.269C133.637,75.022,132.128,71.919,132.128,67.613z M156.902,122.433v-19.269
	c6.749,3.491,8.258,6.594,8.258,10.9C165.16,117.22,161.973,120.581,156.902,122.433z"/>
<path style="fill:#FFD164;" d="M297.29,66.065h-16.516c-4.565,0-8.258-3.694-8.258-8.258s3.694-8.258,8.258-8.258h16.516
	c4.565,0,8.258,3.694,8.258,8.258S301.855,66.065,297.29,66.065z"/>
<path style="fill:#FFC350;" d="M247.742,66.065H214.71c-4.565,0-8.258-3.694-8.258-8.258s3.694-8.258,8.258-8.258h33.032
	c4.565,0,8.258,3.694,8.258,8.258S252.305,66.065,247.742,66.065z"/>
<path style="fill:#6F6571;" d="M313.806,99.097H214.71c-4.565,0-8.258-3.694-8.258-8.258c0-4.565,3.694-8.258,8.258-8.258h99.097
	c4.565,0,8.258,3.694,8.258,8.258S318.371,99.097,313.806,99.097z"/>
<g>
	<path style="fill:#AEA8AF;" d="M313.806,132.129H297.29c-4.565,0-8.258-3.694-8.258-8.258c0-4.565,3.694-8.258,8.258-8.258h16.516
		c4.565,0,8.258,3.694,8.258,8.258C322.065,128.435,318.371,132.129,313.806,132.129z"/>
	<path style="fill:#AEA8AF;" d="M264.258,132.129H214.71c-4.565,0-8.258-3.694-8.258-8.258c0-4.565,3.694-8.258,8.258-8.258h49.548
		c4.565,0,8.258,3.694,8.258,8.258S268.823,132.129,264.258,132.129z"/>
</g>
<path style="fill:#DBD9DC;" d="M363.355,90.839c-4.56,0-8.258-3.698-8.258-8.258V1.534C352.964,0.56,350.647,0,348.257,0h-9.676
	v82.581c0,13.66,11.113,24.774,24.774,24.774h82.581v-9.679c0-2.389-0.559-4.704-1.533-6.837l0,0
	C444.402,90.839,363.355,90.839,363.355,90.839z"/>
<circle style="fill:#FFC350;" cx="255.999" cy="412.9" r="16.516"/>
<g>
</g>
<g>
</g>
<g>
</g>
<g>
</g>
<g>
</g>
<g>
</g>
<g>
</g>
<g>
</g>
<g>
</g>
<g>
</g>
<g>
</g>
<g>
</g>
<g>
</g>
<g>
</g>
<g>
</g>
</svg>
