<?xml version="1.0" encoding="iso-8859-1"?>
<!-- Generator: Adobe Illustrator 19.0.0, SVG Export Plug-In . SVG Version: 6.00 Build 0)  -->
<svg version="1.1" id="Capa_1" xmlns="http://www.w3.org/2000/svg" xmlns:xlink="http://www.w3.org/1999/xlink" x="0px" y="0px"
	 viewBox="0 0 512 512" style="enable-background:new 0 0 512 512;" xml:space="preserve">
<path style="fill:#6F6571;" d="M371.613,512H140.387c-13.682,0-24.774-11.092-24.774-24.774V24.774
	C115.613,11.092,126.705,0,140.387,0h231.226c13.682,0,24.774,11.092,24.774,24.774v462.452
	C396.387,500.908,385.295,512,371.613,512z"/>
<path style="fill:#FFFFFF;" d="M375.742,445.935H136.258c-2.28,0-4.129-1.849-4.129-4.129V37.161c0-2.28,1.849-4.129,4.129-4.129
	h239.484c2.28,0,4.129,1.849,4.129,4.129v404.645C379.871,444.087,378.022,445.935,375.742,445.935z"/>
<path style="fill:#867E88;" d="M264.258,491.355h-16.516c-6.839,0-12.387-5.544-12.387-12.387s5.548-12.387,12.387-12.387h16.516
	c6.839,0,12.387,5.544,12.387,12.387S271.097,491.355,264.258,491.355z"/>
<path style="fill:#E6646E;" d="M329.538,346.839H182.462c-4.856,0-8.664-4.17-8.224-9.006l15.015-165.161
	c0.387-4.254,3.953-7.51,8.224-7.51h117.046c4.271,0,7.837,3.257,8.224,7.51l15.015,165.161
	C338.202,342.669,334.394,346.839,329.538,346.839z"/>
<path style="fill:#FFE17D;" d="M280.774,198.194c-4.565,0-8.258-3.698-8.258-8.258v-41.29c0-9.109-7.411-16.516-16.516-16.516
	c-9.105,0-16.516,7.407-16.516,16.516v41.29c0,4.56-3.694,8.258-8.258,8.258c-4.565,0-8.258-3.698-8.258-8.258v-41.29
	c0-18.214,14.815-33.032,33.032-33.032c18.217,0,33.032,14.819,33.032,33.032v41.29
	C289.032,194.496,285.339,198.194,280.774,198.194z"/>
<path style="fill:#EDEBED;" d="M264.258,421.161c-59.29,0-107.355-48.064-107.355-107.355V33.032h-20.645
	c-2.28,0-4.129,1.849-4.129,4.129v404.645c0,2.28,1.849,4.129,4.129,4.129h239.484c2.28,0,4.129-1.849,4.129-4.129v-20.645H264.258z
	"/>
<path style="fill:#DC4655;" d="M265.89,322.065c-33.992,0-60.646-29.188-57.569-63.04l8.533-93.863h-19.378
	c-4.271,0-7.837,3.257-8.224,7.51l-15.015,165.161c-0.44,4.836,3.368,9.006,8.224,9.006h147.075c4.856,0,8.664-4.17,8.224-9.006
	l-1.433-15.768L265.89,322.065L265.89,322.065z"/>
<g>
	<circle style="fill:#FFC350;" cx="231.23" cy="189.94" r="8.258"/>
	<circle style="fill:#FFC350;" cx="280.77" cy="189.94" r="8.258"/>
</g>
<g>
</g>
<g>
</g>
<g>
</g>
<g>
</g>
<g>
</g>
<g>
</g>
<g>
</g>
<g>
</g>
<g>
</g>
<g>
</g>
<g>
</g>
<g>
</g>
<g>
</g>
<g>
</g>
<g>
</g>
</svg>
