<svg width="20" height="26" viewBox="0 0 20 26" fill="none" xmlns="http://www.w3.org/2000/svg">
<path d="M7.76042 17.7021L17.7604 7.08085L16.1979 5.42128L7.76042 14.383L3.80208 10.1787L2.23958 11.8383L7.76042 17.7021ZM17.7604 0C18.3507 0 18.8715 0.239716 19.3229 0.719149C19.7743 1.19858 20 1.75177 20 2.37872V17.6468C20 18.4213 19.6701 19.0667 19.0104 19.583L10 26L0.989583 19.583C0.329861 19.0667 0 18.4213 0 17.6468V2.37872C0 1.75177 0.225694 1.19858 0.677083 0.719149C1.12847 0.239716 1.64931 0 2.23958 0H17.7604Z" fill="#FF7676"/>
</svg>
